<svg version="1.1" id="Layer_1" xmlns="http://www.w3.org/2000/svg" xmlns:xlink="http://www.w3.org/1999/xlink" x="0px" y="0px"
	 width="100%" viewBox="0 0 500 500" enable-background="new 0 0 500 500" xml:space="preserve">
<path fill="#FFFFFF" opacity="1.000000" stroke="none" 
	d="
M465.000000,501.000000 
	C310.000031,501.000000 155.500076,501.000000 1.000083,501.000000 
	C1.000055,334.333405 1.000055,167.666824 1.000028,1.000172 
	C167.666550,1.000115 334.333099,1.000115 500.999756,1.000057 
	C500.999817,167.666519 500.999817,334.333038 500.999908,500.999756 
	C489.166656,501.000000 477.333344,501.000000 465.000000,501.000000 
M132.647888,273.004395 
	C136.728989,273.004395 140.810089,273.004395 144.989243,273.004395 
	C144.989243,264.626892 144.969727,256.967529 144.997208,249.308304 
	C145.011688,245.268875 146.784058,242.482330 151.036285,242.172409 
	C155.398392,241.854477 157.909409,244.231186 158.586945,248.457962 
	C158.848190,250.087753 158.781235,251.777237 158.786285,253.439758 
	C158.805862,259.888489 158.794235,266.337311 158.794235,272.757629 
	C163.711914,272.757629 168.146042,272.757629 172.924774,272.757629 
	C172.924774,271.215485 172.924469,269.919586 172.924820,268.623688 
	C172.926620,262.124969 172.887573,255.625900 172.945511,249.127686 
	C172.981750,245.061478 174.886139,242.368759 179.140060,242.162659 
	C183.213318,241.965347 185.803757,244.061707 186.398087,248.156662 
	C186.706787,250.283569 186.682877,252.467850 186.695572,254.626892 
	C186.731262,260.700806 186.708008,266.775024 186.708008,272.684326 
	C191.821198,272.684326 196.242645,272.684326 201.080505,272.684326 
	C201.080505,269.329895 201.080505,266.294434 201.080505,262.168304 
	C207.022324,271.235046 214.852432,274.220184 224.237946,274.147095 
	C233.885452,274.071991 241.360336,270.101868 247.295471,260.522064 
	C247.295471,265.676788 247.295471,269.219269 247.295471,272.760071 
	C252.243149,272.760071 256.663910,272.760071 261.425079,272.760071 
	C261.425079,266.039520 261.307739,259.560242 261.454529,253.086945 
	C261.642059,244.816238 266.467194,241.525650 274.474152,243.814362 
	C275.948242,244.235703 277.645996,243.874481 279.654419,243.874481 
	C279.654419,253.125900 279.654419,262.915314 279.654419,272.794220 
	C284.453125,272.794220 288.886993,272.794220 293.788361,272.794220 
	C293.788361,265.302521 293.710358,258.015015 293.814667,250.730133 
	C293.889282,245.518341 297.306274,241.963211 301.990051,241.911377 
	C306.537994,241.861069 309.214050,244.939575 309.413239,250.638428 
	C309.523743,253.800690 309.439514,256.969788 309.440552,260.135803 
	C309.441925,264.371613 309.440887,268.607422 309.440887,272.664001 
	C314.625031,272.664001 319.036224,272.664001 323.639282,272.664001 
	C323.639282,263.345612 323.780914,254.366776 323.592072,245.394897 
	C323.454254,238.845978 319.851593,234.537537 313.810089,232.273773 
	C306.739319,229.624329 300.129669,230.438370 294.412720,235.510513 
	C292.535095,229.244949 287.776581,232.671112 284.493042,232.066635 
	C280.447540,231.321899 276.137360,230.547394 272.181732,231.213013 
	C268.550537,231.824020 265.238312,234.330643 261.793579,235.998199 
	C261.494995,234.715561 261.179321,233.359467 260.908508,232.196152 
	C256.219269,232.196152 251.934784,232.196152 247.134705,232.196152 
	C247.134705,235.932770 247.134705,239.468094 247.134705,243.735016 
	C235.549194,226.675018 212.410873,226.720016 201.073288,242.315659 
	C195.535477,227.723495 180.085587,227.784744 171.271133,237.645065 
	C163.261276,228.975861 154.562073,228.564682 145.240112,235.707001 
	C145.030579,234.327896 144.865295,233.240082 144.706665,232.195953 
	C140.087280,232.195953 135.645935,232.195953 130.864838,232.195953 
	C130.864838,245.213455 130.851700,258.004242 130.899445,270.794800 
	C130.902145,271.515625 131.405457,272.234558 132.647888,273.004395 
M400.972015,251.690063 
	C402.813507,243.158875 407.265686,241.006180 417.780609,243.721405 
	C419.252869,240.711548 420.742035,237.667099 422.203827,234.678589 
	C409.149597,226.684631 397.251038,230.347992 386.037994,245.891525 
	C386.037994,240.904465 386.037994,236.549332 386.037994,232.224411 
	C381.146027,232.224411 376.732666,232.224411 371.741943,232.224411 
	C371.741943,235.908722 371.741943,239.355042 371.741943,243.252594 
	C362.984070,229.528458 352.360138,227.194534 339.284668,235.707214 
	C339.064697,234.415253 338.862671,233.228531 338.710114,232.332443 
	C333.918823,232.332443 329.519501,232.332443 325.268890,232.332443 
	C325.268890,252.949844 325.268890,273.202698 325.268890,293.622986 
	C329.916626,293.622986 334.317841,293.622986 339.155029,293.622986 
	C339.155029,285.680603 339.155029,277.967285 339.155029,269.199493 
	C345.083008,274.096924 351.197296,274.953949 357.583527,273.634552 
	C364.122070,272.283661 368.190796,267.600372 372.216858,262.329987 
	C372.216858,265.855621 372.216858,269.381287 372.216858,272.699066 
	C377.153809,272.699066 381.575714,272.699066 386.345276,272.699066 
	C386.345276,268.204285 386.345276,264.010010 386.345276,259.292542 
	C396.099640,274.387970 409.815857,278.498444 422.167603,270.242004 
	C420.668243,267.208893 419.152771,264.143188 417.665710,261.135010 
	C407.191284,264.171692 402.163300,261.490723 400.972015,251.690063 
M114.319473,234.112335 
	C113.810982,234.227707 113.127472,234.615982 112.819603,234.418549 
	C105.204956,229.535080 97.337898,229.183716 89.860916,234.154617 
	C82.176521,239.263428 79.895836,247.070984 80.885956,256.000336 
	C82.609894,271.547485 99.351669,279.235413 112.230881,270.392578 
	C112.757378,270.031097 113.364174,269.786530 114.044182,269.429382 
	C114.495811,270.755402 114.884720,271.897278 115.153748,272.687164 
	C119.880310,272.687164 124.128227,272.687164 128.348724,272.687164 
	C128.348724,258.970398 128.348724,245.579819 128.348724,231.322571 
	C123.431297,232.016800 118.914177,232.654510 114.319473,234.112335 
M382.993042,207.477539 
	C376.338287,205.895935 371.576385,208.450821 371.041321,214.026703 
	C370.622711,218.389297 372.653320,221.573105 376.724152,222.890961 
	C380.777405,224.203125 384.316162,222.880005 386.593475,219.126236 
	C388.921387,215.289108 387.912292,211.718018 382.993042,207.477539 
z"/>
<path fill="#040404" opacity="1.000000" stroke="none" 
	d="
M132.161835,272.979370 
	C131.405457,272.234558 130.902145,271.515625 130.899445,270.794800 
	C130.851700,258.004242 130.864838,245.213455 130.864838,232.195953 
	C135.645935,232.195953 140.087280,232.195953 144.706665,232.195953 
	C144.865295,233.240082 145.030579,234.327896 145.240112,235.707001 
	C154.562073,228.564682 163.261276,228.975861 171.271133,237.645065 
	C180.085587,227.784744 195.535477,227.723495 201.073288,242.315659 
	C212.410873,226.720016 235.549194,226.675018 247.134705,243.735016 
	C247.134705,239.468094 247.134705,235.932770 247.134705,232.196152 
	C251.934784,232.196152 256.219269,232.196152 260.908508,232.196152 
	C261.179321,233.359467 261.494995,234.715561 261.793579,235.998199 
	C265.238312,234.330643 268.550537,231.824020 272.181732,231.213013 
	C276.137360,230.547394 280.447540,231.321899 284.493042,232.066635 
	C287.776581,232.671112 292.535095,229.244949 294.412720,235.510513 
	C300.129669,230.438370 306.739319,229.624329 313.810089,232.273773 
	C319.851593,234.537537 323.454254,238.845978 323.592072,245.394897 
	C323.780914,254.366776 323.639282,263.345612 323.639282,272.664001 
	C319.036224,272.664001 314.625031,272.664001 309.440887,272.664001 
	C309.440887,268.607422 309.441925,264.371613 309.440552,260.135803 
	C309.439514,256.969788 309.523743,253.800690 309.413239,250.638428 
	C309.214050,244.939575 306.537994,241.861069 301.990051,241.911377 
	C297.306274,241.963211 293.889282,245.518341 293.814667,250.730133 
	C293.710358,258.015015 293.788361,265.302521 293.788361,272.794220 
	C288.886993,272.794220 284.453125,272.794220 279.654419,272.794220 
	C279.654419,262.915314 279.654419,253.125900 279.654419,243.874481 
	C277.645996,243.874481 275.948242,244.235703 274.474152,243.814362 
	C266.467194,241.525650 261.642059,244.816238 261.454529,253.086945 
	C261.307739,259.560242 261.425079,266.039520 261.425079,272.760071 
	C256.663910,272.760071 252.243149,272.760071 247.295471,272.760071 
	C247.295471,269.219269 247.295471,265.676788 247.295471,260.522064 
	C241.360336,270.101868 233.885452,274.071991 224.237946,274.147095 
	C214.852432,274.220184 207.022324,271.235046 201.080505,262.168304 
	C201.080505,266.294434 201.080505,269.329895 201.080505,272.684326 
	C196.242645,272.684326 191.821198,272.684326 186.708008,272.684326 
	C186.708008,266.775024 186.731262,260.700806 186.695572,254.626892 
	C186.682877,252.467850 186.706787,250.283569 186.398087,248.156662 
	C185.803757,244.061707 183.213318,241.965347 179.140060,242.162659 
	C174.886139,242.368759 172.981750,245.061478 172.945511,249.127686 
	C172.887573,255.625900 172.926620,262.124969 172.924820,268.623688 
	C172.924469,269.919586 172.924774,271.215485 172.924774,272.757629 
	C168.146042,272.757629 163.711914,272.757629 158.794235,272.757629 
	C158.794235,266.337311 158.805862,259.888489 158.786285,253.439758 
	C158.781235,251.777237 158.848190,250.087753 158.586945,248.457962 
	C157.909409,244.231186 155.398392,241.854477 151.036285,242.172409 
	C146.784058,242.482330 145.011688,245.268875 144.997208,249.308304 
	C144.969727,256.967529 144.989243,264.626892 144.989243,273.004395 
	C140.810089,273.004395 136.728989,273.004395 132.161835,272.979370 
M227.466553,261.406097 
	C232.989166,257.956757 234.731583,252.986374 232.171906,247.983810 
	C229.975937,243.692062 224.840515,241.745682 220.238007,243.460754 
	C215.564804,245.202148 213.081467,250.310287 214.489471,255.285324 
	C215.979935,260.551727 219.584778,262.450897 227.466553,261.406097 
z"/>
<path fill="#030303" opacity="1.000000" stroke="none" 
	d="
M400.956970,252.093811 
	C402.163300,261.490723 407.191284,264.171692 417.665710,261.135010 
	C419.152771,264.143188 420.668243,267.208893 422.167603,270.242004 
	C409.815857,278.498444 396.099640,274.387970 386.345276,259.292542 
	C386.345276,264.010010 386.345276,268.204285 386.345276,272.699066 
	C381.575714,272.699066 377.153809,272.699066 372.216858,272.699066 
	C372.216858,269.381287 372.216858,265.855621 372.216858,262.329987 
	C368.190796,267.600372 364.122070,272.283661 357.583527,273.634552 
	C351.197296,274.953949 345.083008,274.096924 339.155029,269.199493 
	C339.155029,277.967285 339.155029,285.680603 339.155029,293.622986 
	C334.317841,293.622986 329.916626,293.622986 325.268890,293.622986 
	C325.268890,273.202698 325.268890,252.949844 325.268890,232.332443 
	C329.519501,232.332443 333.918823,232.332443 338.710114,232.332443 
	C338.862671,233.228531 339.064697,234.415253 339.284668,235.707214 
	C352.360138,227.194534 362.984070,229.528458 371.741943,243.252594 
	C371.741943,239.355042 371.741943,235.908722 371.741943,232.224411 
	C376.732666,232.224411 381.146027,232.224411 386.037994,232.224411 
	C386.037994,236.549332 386.037994,240.904465 386.037994,245.891525 
	C397.251038,230.347992 409.149597,226.684631 422.203827,234.678589 
	C420.742035,237.667099 419.252869,240.711548 417.780609,243.721405 
	C407.265686,241.006180 402.813507,243.158875 400.956970,252.093811 
M346.073395,243.083984 
	C340.425049,245.539459 338.169800,248.961914 339.057098,254.147614 
	C339.811951,258.559204 342.509338,261.290833 346.957642,261.967865 
	C352.773315,262.853058 357.600037,258.910370 357.972778,253.153992 
	C358.391541,246.685974 354.386627,243.016983 346.073395,243.083984 
z"/>
<path fill="#060606" opacity="1.000000" stroke="none" 
	d="
M114.358261,233.702271 
	C118.914177,232.654510 123.431297,232.016800 128.348724,231.322571 
	C128.348724,245.579819 128.348724,258.970398 128.348724,272.687164 
	C124.128227,272.687164 119.880310,272.687164 115.153748,272.687164 
	C114.884720,271.897278 114.495811,270.755402 114.044182,269.429382 
	C113.364174,269.786530 112.757378,270.031097 112.230881,270.392578 
	C99.351669,279.235413 82.609894,271.547485 80.885956,256.000336 
	C79.895836,247.070984 82.176521,239.263428 89.860916,234.154617 
	C97.337898,229.183716 105.204956,229.535080 112.819603,234.418549 
	C113.127472,234.615982 113.810982,234.227707 114.358261,233.702271 
M114.027771,248.735229 
	C111.856880,243.928345 107.968262,242.168427 103.026260,243.141205 
	C99.133865,243.907394 96.545624,246.463333 95.907852,250.543625 
	C95.272911,254.605743 95.878654,258.929169 99.862732,260.390167 
	C103.055786,261.561096 107.520172,261.642792 110.556854,260.281525 
	C114.675430,258.435303 115.589622,253.985703 114.027771,248.735229 
z"/>
<path fill="#080808" opacity="1.000000" stroke="none" 
	d="
M383.303467,207.669464 
	C387.912292,211.718018 388.921387,215.289108 386.593475,219.126236 
	C384.316162,222.880005 380.777405,224.203125 376.724152,222.890961 
	C372.653320,221.573105 370.622711,218.389297 371.041321,214.026703 
	C371.576385,208.450821 376.338287,205.895935 383.303467,207.669464 
z"/>
<path fill="#FAFAFA" opacity="1.000000" stroke="none" 
	d="
M227.099243,261.570618 
	C219.584778,262.450897 215.979935,260.551727 214.489471,255.285324 
	C213.081467,250.310287 215.564804,245.202148 220.238007,243.460754 
	C224.840515,241.745682 229.975937,243.692062 232.171906,247.983810 
	C234.731583,252.986374 232.989166,257.956757 227.099243,261.570618 
z"/>
<path fill="#FAFAFA" opacity="1.000000" stroke="none" 
	d="
M346.476501,243.037659 
	C354.386627,243.016983 358.391541,246.685974 357.972778,253.153992 
	C357.600037,258.910370 352.773315,262.853058 346.957642,261.967865 
	C342.509338,261.290833 339.811951,258.559204 339.057098,254.147614 
	C338.169800,248.961914 340.425049,245.539459 346.476501,243.037659 
z"/>
<path fill="#F8F8F8" opacity="1.000000" stroke="none" 
	d="
M114.127441,249.107666 
	C115.589622,253.985703 114.675430,258.435303 110.556854,260.281525 
	C107.520172,261.642792 103.055786,261.561096 99.862732,260.390167 
	C95.878654,258.929169 95.272911,254.605743 95.907852,250.543625 
	C96.545624,246.463333 99.133865,243.907394 103.026260,243.141205 
	C107.968262,242.168427 111.856880,243.928345 114.127441,249.107666 
z"/>
</svg>